<?xml version="1.0" encoding="UTF-8"?>
<svg width="50px" height="50px" version="1.1" viewBox="0 0 203.2 203.2" xmlns="http://www.w3.org/2000/svg">
<g fill="#fff">
<g transform="translate(-18.955 -1.2937)">
<path d="m78.351 51.289c10.694 1.9167 24.16 2.7497 38.696 2.7902l-0.02764-17.459"/>
<path d="m123.41 36.62-0.0607 17.523c15.871-0.06993 28.8-0.56146 39.479-2.0378"/>
<path d="m123.4 60.444-0.051 14.365 3.5783 3.5273s26.676 0.30016 47.186 16.947c0 0-3.6854-24.969-8.6698-37.264-13.794 2.1494-23.694 2.1735-42.044 2.4247z"/>
<path d="m117.29 60.392s-22.264 0.33232-41.869-2.9907c0 0-5.3422 10.735-7.6683 35.658 0 0 15.528-13.261 46.923-14.995l-2.37-3.0506 4.9844 0.05098z"/>
</g>
<path d="m98.065 35.326s-27.282-1.1233-38.669 14.669"/>
<path d="m104.45 35.326s25.689-1.3242 39.419 15.485"/>
<g transform="matrix(1 0 0 -1 -18.955 203.05)">
<path d="m78.351 51.289c10.694 1.9167 24.476 2.6865 39.013 2.7269l-0.34388-17.396"/>
<path d="m123.85 36.744 0.0691 17.336c15.871-0.06993 28.231-0.49821 38.91-1.9745"/>
<path d="m123.91 60.823 0.0307 10.354 6.6257 6.2782s26.107 2.4551 43.446 16.471c0 0-3.5802-23.612-8.5646-35.907-17.43 1.894-28.041 2.8079-41.538 2.8042z"/>
<path d="m117.23 60.709s-22.201 0.01608-41.806-3.3069c0 0-5.3422 10.735-7.6683 35.658 24.101-9.7157 26.709-13.622 49.96-15.31l-4.4647-6.9707 4.1713 0.13722z"/>
</g>
<path d="m98.065 166.43s-27.282 1.1233-38.669-14.669"/>
<path d="m104.89 166.31s25.205 1.2246 38.979-15.361"/>
</g>
<g transform="translate(-18.955 -1.2937)">
<g fill="#fff">
<path d="m71.924 50.158c0.53942 0.083328-17.341-3.0007-28.214-6.4887 24.672-33.131 66.351-38.86 66.351-38.86s-20.206 10.599-38.136 45.349z"/>
<path d="m117.02 36.62c-25.42 2.0871-37.249 15.588-38.669 14.669 14.568-30.546 38.702-46.244 38.702-46.244z"/>
<path d="m123.48 4.823s25.25 17.206 39.348 47.282"/>
<path d="m199.26 45.079c-24.907-35.95-67.72-40.315-67.72-40.315s29.257 25.593 37.951 46.74" fill="#fff"/>
<path d="m169.49 51.504c12.492-1.6888 22.275-4.1117 29.769-6.4254"/>
<path d="m202.12 49.486c-7.4484 2.3038-16.79 4.9276-30.132 7.4918 0.60891 1.69 1.2129 3.4719 1.9859 6.3107l35.155-1.5271s-2.4656-6.793-7.0088-12.275z"/>
<path d="m112.31 75.013 11.669 0.33232 2.9522 2.9907 20.27 18.609s13.768 0.11142 27.392 5.7605c0 0-9.1155 6.5345-26.395 7.1991l-24.258 23.261-10.633 0.33231 14.289-22.264s-71.017-2.4054-102.59-7.0575c0 0 54.734-8.2281 101.92-8.5604l-11.63-16.615z"/>
<path d="m70.277 56.751s-6.1706 15.951-7.8321 38.215l-37.849 3.6402s2.8953-31.868 16.519-49.812c8.1806 2.4961 19.834 5.7365 29.161 7.9569z"/>
<path d="m24.675 109.18s2.563 26.647 15.523 45.255c0 0 14.97-4.4634 30.35-6.3458 0 0-7.0274-15.586-7.4219-35.524z"/>
<path d="m172.12 142.14 36.885 0.33227s-1.9145 6.3458-6.9782 11.963c0 0-12.96-5.3167-30.904-7.3105z"/>
<path d="m198.37 159.75s-23.447 32.357-65.981 39.335c0 0 22.772-17.408 37.072-46.314"/>
<path d="m169.46 152.77s14.953 1.6615 28.91 6.9782"/>
<path d="m107.84 198.69c-44.195-8.6397-64.464-39.321-64.464-39.321s17.295-5.5697 29.258-6.2343c5.2335 12.034 15.395 28.609 35.206 45.556z"/>
<path d="m123.48 4.823-0.0704 31.797s19.468-0.17482 39.419 15.485"/>
<path d="m117.02 167.72c-22.879-1.2463-38.669-14.669-38.669-14.669 14.568 30.546 38.702 46.244 38.702 46.244z"/>
<path d="m123.83 199.33s24.904-17.019 39.002-47.095"/>
<path d="m123.83 199.33 0.0225-31.733s19.914-0.33364 39.106-15.361"/>
</g>
</g>
</svg>
